<svg xmlns="http://www.w3.org/2000/svg" width="292.398" height="14" viewBox="0 0 292.398 14"><defs><style>.a{fill:#eee809;}.b{fill:#1a1f4a;}</style></defs><g transform="translate(-265 -1387)"><path class="a" d="M249,307.745l1.436.5c-1.734.831-2.988.545-1.639,1.255.2-1.758,5.58-.18,5.78-1.937l.948.37c-.271-.018-.315.085-.583.069,1.84.842,1.366-1.271,3.738-1.022.827.135,1.4.39.84.6l1.842-.435c.536.034.4.339-.128.306l2.808-.14-.021.052a12.282,12.282,0,0,1,1.753-.884c.713.252-.359.186-.176.407l1.555-.427c.633.456-.655.9-1.73.832,1.453,1.756,1.291-.441,4.425.584l-1.47.223c.949,1,2.095.636,3.755,1.258-.394-.325-3.325-1.568-1.637-2.006a3.022,3.022,0,0,0,2.015-.158c.008.625.9.471,2.011.436l-.078.827c1.2-.238,1.108-.66,1.817-1.033a2,2,0,0,1,1.933,1.264c2.149.132-1.481-1.028,1.059-1.185,1.787.317,3.04-.022,5.176-.517,1.249.285-.219.506.23.743l1.107-.66c.271.016.184.219.14.321.932-.256.076-.827,1.545-1.053.395-.913,3.012,1.332,4.828.3.448.236-.216.508-.079.829a17.786,17.786,0,0,0,4.182-1.409l1.744.544c-1.281-.623.355-1.358,1.789-1.963a12.16,12.16,0,0,0-1.1-.689l2.288-.444c.277.136.045.421-.329.766.155-.069.3-.136.418-.2.818.306.395.783-.192,1.247-.278-.163-.555-.338-.825-.511-.565.5-1.093,1.06-.975,1.545a2.129,2.129,0,0,1,.75-.223c-.148.136-.242.258-.175.341s.317-.1.691-.307l.521.923.127-.366,2.991.577c2.141-.93,4-2.3,7.4-2.679-.843.677-.181,1.106-.227,1.908-.928-.849-2.632.361-4.394.188.921.089.717.471.484.6l3.14-.772c-.07.656.668.492,1.489.763-.62-1.3,2.341-.864,3.62-1.261.079.435-.228.88-1.787.776,1.721.976,2.223-1.524,3.911-.694-.381.01-.587-.056-.735.164.889-.386,3.062-.08,2.552.3l-.379.009c2.527.154,7.695.01,8.071-1.091a6,6,0,0,1-.484,1.55l4.511-3.706c-.4.946,1.129,3.2-.968,3.733a4.885,4.885,0,0,0,2.615-.041c-.41-.135-1.023-1.367-.462-1.454,1.541,1.053,1.071.563,2.968,1.46-.615-.2.069-1.686,1.041-1.638-.151.221.082,1.464-.274,1.618l2.421-1.457c-.6.263-.107,1.234.435,1.646-.251-.285,2.094.027,2.74-.118l-1.027-.337c2.733.22,2.7-2.048,5.411-1.972-.329.3-.812,1.851.568,2.035.632-.747,2.8-3.588,5.2-4.161l.461.426,1.841-.486a36.481,36.481,0,0,1-6.12,4.4c1.023.337.285.5,1.818.464.54.4-.836.606-1.287.629l3.567.259c-.159-.871,2.728-.874,2.591-1.6l-3.874.9c-.157-.869,2.24-2.47,4.767-2.318.643.347-.48,1.55-.427,1.84a4.825,4.825,0,0,1,2.63-.359l-1.071.465c1.406.328,2.294-1.154,3.986-.324.583.056,1.741,1.121,1.842.606-.953-.993-1.137-4.065-.5-4.811a23.078,23.078,0,0,1,3.73,1.44c.961.779-1.442,1.857-.625,2.525.036-.237.567-.531.789-.625.611.2-.254.737,1.077.629.223-.882,2.709.075.629-.746,1.3-.252,1.385.181,2.913.142-.486-.57,1.375-1.941,2.68-2.192-.078.224.215.517.357.65,2.67.08,4.1.48,6.593.488.229.214,1.431.473.919.852a3.027,3.027,0,0,1,1.455-.476c1.485.763-1.713.119-.58,1.036.1-.513,1.986-.708,3.079-1.028-.335-.792-2.527-.151-3.623.168,0-1.093,1.9-2.237,4.5-2.742,2.069-.271.9.707,1.257.55,3.884.192,3.308-1.907,6.535-1.119,1.279.7.057,1.384.341,1.886-1.684.264-2.587-.441-3.729-.414l1.406.33a4.05,4.05,0,0,1-2.274.2c1.075.625,6.564.12,9.56.7.532-.233,1.451-.475,1.016-.755l-.948.1c-.871-.561,1.785-.776.584-1.038a8.893,8.893,0,0,1,4.489-.7l.337.795c-.039-.233-1.17-.474-1.673-.232.746-.352,2.745,1.075,3.563.035l-1.256-.549c1.277-.4,2.856-1.242,4.444-.992-.722-.785-.366.089-1.494-.827.978,1.141-4.06-.048-2.49,1.151-1.156-1.064-2-.452-3.514-1.359.047.262.536.5-.8.372a1.4,1.4,0,0,1-.291.23.7.7,0,0,1-.091-.019c.027.01.047.022.074.031-.058.039-.063.048.027.012a1.5,1.5,0,0,1,.678.4c-.662.6-2.78.583-3.5.893-.791-.124.33-.3-.1-.58l-1.071.466c-.106-.583-2.1-.966-.238-1.308l-1.675-.026a6.152,6.152,0,0,0-3.182-.211c-.79-.126-2,.643-1.308.189l-2.63.36-.023-.145c-2.595-.074-5.341.962-8.306-.087a10.154,10.154,0,0,1-3.236.161l-.285-.5c-1.121.176-3.368-.5-3.849.021-1.209-1.354-5.44-.3-7.414-.536l-.074.658a23.643,23.643,0,0,0-4.344.412l.1.581c-1.453.476-3.733-.413-6.032-.353.157-.223.739-.164,1.152-.03-2.745-1.312-5.791.954-8.281,0a2.156,2.156,0,0,1-1.5-.008.427.427,0,0,0,.154-.03,2.49,2.49,0,0,0-.255-.006c-.273-.1-.557-.216-.861-.309a3.234,3.234,0,0,0,.725.311,11.736,11.736,0,0,0-1.915.229l-.3-.623c-.058.008-.1.006-.164.018-.7-.23-.562.3-.19.764a4.147,4.147,0,0,0-.94.375c-.567-1.006-1.866.339-2.639-.734-.48.523-3.577.394-3.955,1.5-.025-.144-.234-.212.15-.221a4.1,4.1,0,0,0-2.3.06l-.338-.792-1.731,1.066c-1.051-.483-1.488-.764-.444-1.374-2.521.939-2.046.353-4.19,1.283l.1-.513c-.768.021-1.993.707-2.456.284-1.714-.975-8.484-.135-12.886-1.04.854,1.508-2.046-.677-2.219.492-.258-.356-.87-.558-.158-.869-2.248.351-3.375-.566-4.926.421-.256-.359.48-.523.251-.735-.18.078-.713.311-.946.1s.329-.3.684-.456c-2.294.06-2.526,1.16-2.693,2.192a2.1,2.1,0,0,0-2.583.258c-.405-.338-1.08-.691.344-.812-.8-.051-4.9-.5-4.981.331-.252-.21-1.121-.061-1.334.035a36.225,36.225,0,0,0-3.725-.045l.489.135c-.7,1-1.468.223-2.894.343l.04-.1c-3.267-.72-1.411.344-4.634-.476l.176.62c-.3,1.336-2.856-.787-4.726-.277l.675.355c-1.022.457-2.856-1.816-3.883-1.984-.224-.117.352-.186.667-.272-2.688-.788-.35.813-2.351,1-.369-.439.475-1.116-.871-1.2-.671-.355-3.908,1.426-5.746.584.4.338.807.676-.123.93-1.424.12-3.852-1.278-5.14-.212-.18-.092-.25-.181-.258-.265-1.089.276-3.54.457-4.2,1.036-1.006-2.145-6.771,1.042-6.748-.936l-3.352.106.089-.2a5.1,5.1,0,0,0-3.654.818c-.495-.135-.133-.32-.092-.423-3.131-.4-3.441-.315-6.066.671l-.272-.641c-.712.373-4.526-1.006-7.6-.258a.513.513,0,0,1,.339-.289c-3.454.754-8.269-1.78-9.534.558l-2.279.575c2.948.183-.439,1.015.774,1.4-1.16.137-3-.7-1.573-.825l.223.118c.523-1.218-3.664-.432-3.585-1.262-5.8.061-11.457-.614-16.892-.665l.627.946-1.9-.054c-.5-.22-.668-.741.684-.7-.711-.536-2.267.449-2.306.656-2.648-.385,1.034-1.1.223-1.128l-1.1.071.25.11c-.895.387-.972.8-2.6.751-1.029-.19-.528-.584-.934-.621,0-.066-.133-.1-.62-.027l-2.389-.08.955.747c-1.059.369-2.246-.039-1.145.808-1.617-1.305-8.91-.469-9.9-.874a12,12,0,0,1-4.759.47c.451.155.72,1-.843.893.571-1.735-2.864-.754-4.128-2,1.129.829-4.445.2-2.674,1.38-1.305-.141-.08-.65-1.068-1.058-3.106.672-6.845-.436-10.683-.21-.06.228.583.576-.242.914l-2.025-1.138c-.759.111-.7,1.314-2.085.524.2.192.488.48-.019.553-7.521-1.11-15.367.909-23-1.176,1.034.442.346.484-.445.5.514.106-.01.563.091.871l-3.2-.857c-.581.856-3.428.058-3.761.877l1.012-.148c-1.347.967,1.884,2.148,1.687,3.388,1.507-1.1,3.975,1.628,6.449.054.546.254-.466.4-.173.687.628-.531,1.384-.642,2.788-.4l-.159.132c3.941-.129,5.632.394,10.061.743l-.328-.614a4.4,4.4,0,0,1,1.6.429c1.091-.93-2.674-.053-1.678-1.079,1.262,1.248,6.711.019,7.564,1.437,1.464.008-.43-.71,1.034-.7l.388.385.37-.495c.959.082,1.444.561,1.48.886a4.536,4.536,0,0,0-.912.119c1.246.452,3.51-.154,3.937-.006l-1.407-.237c4-.359,8.874.145,12.735-.636l-.294-.289c2.948-.536,2.362.317,5.6.07l-.117.069a5.584,5.584,0,0,1,2.4-.4c-.817.338,1.538.659.466,1.033,3.2-.575,1.581-.452,3.693-1.526l.487.479a3.63,3.63,0,0,1,2.4-.787c-1.327.412,1.031.732-.454,1.277,3.392,1.05,5.036-1.06,6.594.475,1.556-1.328-2.936-.738-2.064-1.022-.73-.435,1.286-.994,2.349-.861,1.085.03,1.844,1.7,4.57,1.675-.272-.006-.291.095-.562.088,1.02.339,2-.458,3.251.092.7-.8,1.625.047,1.827-.979l-2.5.237c1.418-.268,2.746-1.467,5.082-.886a4.205,4.205,0,0,1-1.354.631c.684.3,1.315-.2,2.024.11-.2,1.027-3.04.223-4.557,1,.733.434,2.873-.742,2.109.369,1.1-1.413,2.685.177,4.532-.9l-.122.615a4.271,4.271,0,0,1,1.435-.372l-.974.8c1.494-.678,2.881.594,4.315.225-3,.018-.675-.741-1.943-1.189,3.7-.822,2.129,1.607,6.274,1.313-.562.085-2.107-.37-1.23-.654a7.07,7.07,0,0,1,2.315.684c2.746-.127-.422-.632.748-1.009.933.748,1.348-.306,2.551-.545l.008.625c3.129.4.831-1.3,3.647-.818l-1.19.866,1.467-.224-.3.711a6.322,6.322,0,0,1,3.66-.192c-.364-.44.2-1.133,1.591-1.152.944.37-.53.593,1.435.5-.444.391-.93.882-1.784.307-.088.2-.438.391-.528.593,1.019.426,2.56.1,3.269.091a2.4,2.4,0,0,1-.768-.145l2.847-.866c.449.234.093.423-.259.607a16.025,16.025,0,0,1,1.824-.408c-.22.508-.167,1.032-1.369,1.27l2.714-.563c.181.221,1.392.607,1.04.794,1.5.3,3.69-.985,5.684-.59a1.425,1.425,0,0,1,.737-.265c1.873.114,3.535.737,5.755.041l1.261.91c1.739-.207-1.706-1.147,1.19-1.49,2.051-.29.765.777,1.486,1.029,1.019-.458,2.793-1.392,4.677-.651a9.663,9.663,0,0,1-1.695.1m21.458-.4c-.416.131-1.246.536-1.549.167.473-.716.839-.373,1.549-.167m32.617-1.5c-.308.207-.786.1-1.326-.132a3,3,0,0,1,1.326.132m90.865-4.348a.176.176,0,0,0-.044.03c-.927-.243-.6-.148.044-.03m1.925.271c.2-.087.181-.173.1-.262-.133.158-.566.17-1.059.126.138.163.387.276.961.136m-206.819.246.375.163c-.847.18-.61.018-.375-.163" transform="translate(147.682 1088.798)"/><circle class="b" cx="7" cy="7" r="7" transform="translate(397 1387)"/></g></svg>