<svg xmlns="http://www.w3.org/2000/svg" width="16.782" height="16.782" viewBox="0 0 16.782 16.782"><defs><style>.a{fill:#474747;}</style></defs><path class="a" d="M11.537,0H5.244A5.245,5.245,0,0,0,0,5.244v6.293a5.245,5.245,0,0,0,5.244,5.244h6.293a5.245,5.245,0,0,0,5.244-5.244V5.244A5.245,5.245,0,0,0,11.537,0Zm3.671,11.537a3.675,3.675,0,0,1-3.671,3.671H5.244a3.675,3.675,0,0,1-3.671-3.671V5.244A3.675,3.675,0,0,1,5.244,1.573h6.293a3.675,3.675,0,0,1,3.671,3.671Z"/><g transform="translate(4.195 4.195)"><path class="a" d="M132.2,128a4.2,4.2,0,1,0,4.2,4.2A4.2,4.2,0,0,0,132.2,128Zm0,6.818a2.622,2.622,0,1,1,2.622-2.622A2.626,2.626,0,0,1,132.2,134.818Z" transform="translate(-128 -128)"/></g><g transform="translate(12.342 3.322)"><ellipse class="a" cx="0.559" cy="0.559" rx="0.559" ry="0.559"/></g></svg>