<svg xmlns="http://www.w3.org/2000/svg" width="20.654" height="16.782" viewBox="0 0 20.654 16.782"><defs><style>.a{fill:#474747;}</style></defs><g transform="translate(0 0)"><path class="a" d="M20.654,49.987a8.828,8.828,0,0,1-2.44.669,4.211,4.211,0,0,0,1.863-2.34,8.462,8.462,0,0,1-2.685,1.025,4.234,4.234,0,0,0-7.325,2.9,4.36,4.36,0,0,0,.1.966,11.985,11.985,0,0,1-8.728-4.429,4.235,4.235,0,0,0,1.3,5.659A4.182,4.182,0,0,1,.826,53.91v.046a4.254,4.254,0,0,0,3.392,4.161,4.226,4.226,0,0,1-1.11.139,3.744,3.744,0,0,1-.8-.072,4.275,4.275,0,0,0,3.957,2.95,8.508,8.508,0,0,1-5.25,1.806A7.932,7.932,0,0,1,0,62.881a11.921,11.921,0,0,0,6.5,1.9A11.969,11.969,0,0,0,18.548,52.732c0-.187-.006-.368-.015-.547A8.447,8.447,0,0,0,20.654,49.987Z" transform="translate(0 -48)"/></g></svg>