<svg xmlns="http://www.w3.org/2000/svg" width="23.982" height="23.982" viewBox="0 0 23.982 23.982"><defs><style>.a{fill:#44bb4c;}</style></defs><path class="a" d="M127.516,156.274l-6.832,6.832-3.085-3.085a.937.937,0,1,0-1.325,1.325l3.747,3.747a.937.937,0,0,0,1.325,0l7.494-7.494a.937.937,0,0,0-1.325-1.325Z" transform="translate(-110.566 -148.693)"/><path class="a" d="M21.172,0H2.81A2.814,2.814,0,0,0,0,2.81V21.172a2.814,2.814,0,0,0,2.81,2.81H21.172a2.814,2.814,0,0,0,2.81-2.81V2.81A2.814,2.814,0,0,0,21.172,0Zm.937,21.172a.938.938,0,0,1-.937.937H2.81a.938.938,0,0,1-.937-.937V2.81a.938.938,0,0,1,.937-.937H21.172a.938.938,0,0,1,.937.937Z"/></svg>