<svg xmlns="http://www.w3.org/2000/svg" width="16.787" height="16.787" viewBox="0 0 16.787 16.787"><defs><style>.a{fill:#474747;}</style></defs><g transform="translate(0)"><path class="a" d="M8.4,0h0A8.388,8.388,0,0,0,1.6,13.313L.552,16.431,3.778,15.4A8.392,8.392,0,1,0,8.4,0Zm4.884,11.853a2.368,2.368,0,0,1-1.647,1.185c-.439.093-1.011.168-2.94-.632A10.515,10.515,0,0,1,4.514,8.714a4.794,4.794,0,0,1-1-2.532A2.68,2.68,0,0,1,4.375,4.14a1.219,1.219,0,0,1,.858-.3c.1,0,.2.005.281.009.247.01.37.025.533.414.2.488.7,1.692.754,1.816a.5.5,0,0,1,.036.454,1.45,1.45,0,0,1-.272.385c-.124.143-.241.252-.365.4-.113.133-.241.276-.1.522A7.45,7.45,0,0,0,7.464,9.538a6.171,6.171,0,0,0,1.968,1.214.531.531,0,0,0,.592-.093,10.157,10.157,0,0,0,.656-.869.468.468,0,0,1,.6-.183c.227.079,1.426.671,1.672.794s.409.183.469.286A2.09,2.09,0,0,1,13.279,11.853Z" transform="translate(0)"/></g></svg>