<svg xmlns="http://www.w3.org/2000/svg" width="19.822" height="13.627" viewBox="0 0 19.822 13.627"><defs><style>.a{fill:#474747;}</style></defs><g transform="translate(0 0)"><path class="a" d="M18.979,81.313c-.538-.956-1.121-1.132-2.309-1.2S12.5,80,9.913,80s-5.576.033-6.762.113-1.77.243-2.313,1.2S0,83.914,0,86.81v.01c0,2.884.285,4.542.839,5.487s1.126,1.13,2.312,1.21,4.172.11,6.763.11,5.57-.041,6.758-.109,1.772-.254,2.309-1.21c.559-.945.841-2.6.841-5.487v-.01C19.822,83.914,19.539,82.268,18.979,81.313ZM7.433,90.53V83.1l6.194,3.717Z" transform="translate(0 -80)"/></g></svg>